<svg fill="none" height="94" viewBox="0 0 83 94" width="83" xmlns="http://www.w3.org/2000/svg" xmlns:xlink="http://www.w3.org/1999/xlink"><clipPath id="a"><path d="m.5 0h82v94h-82z"/></clipPath><g clip-path="url(#a)"><path d="m72.3158 18.045c-.0748-.453-.4493-.755-.8237-.755s-6.9644-.151-6.9644-.151-5.5415-5.4362-6.0657-5.9647-1.6475-.3775-2.022-.2265c0 0-1.0484.302-2.7707.8305-.2996-.9815-.7489-2.11403-1.348-3.32206-1.947-3.7751-4.8676-5.81366-8.3123-5.81366-.2247 0-.4493 0-.7489.07551-.0749-.15101-.2246-.22651-.2995-.37751-1.4977-1.661048-3.4448-2.4160682-5.7662-2.34056616-4.4932.15100416-8.9863 3.39758616-12.5808 9.21124616-2.5462 4.07714-4.4932 9.21124-5.0923 13.21284-5.1671 1.5856-8.7616 2.7181-8.8365 2.7936-2.62102.8305-2.69591.906-2.99545 3.3976-.22466 1.8875-7.114155 55.1164-7.114155 55.1164l57.212805 9.9663 24.7872-6.1912c-.0749-.0755-10.1845-69.0088-10.2594-69.4618zm-21.4922-5.3606c-1.3479.3775-2.8457.906-4.4183 1.359 0-2.2651-.2995-5.51166-1.3479-8.22973 3.3698.67952 5.0173 4.53013 5.7662 6.87073zm-7.4886 2.3405c-2.9954.906-6.2904 1.9631-9.5854 2.9446.8987-3.5486 2.6959-7.0972 4.7927-9.43776.8238-.83052 1.947-1.81205 3.2201-2.41606 1.348 2.64257 1.6475 6.34212 1.5726 8.90922zm-6.0657-12.00481c1.0484 0 1.947.22651 2.6959.67952-1.1982.67952-2.3964 1.58554-3.5197 2.79358-2.8456 3.09558-5.0173 7.92771-5.916 12.53331-2.6959.8305-5.3917 1.6611-7.863 2.4161 1.5726-7.2482 7.6384-18.196 14.6028-18.42251z" fill="#95bf47"/><path d="m71.4919 17.29c-.3744 0-6.9644-.151-6.9644-.151s-5.5415-5.4361-6.0658-5.9646c-.2246-.2265-.4493-.302-.7488-.3775v82.8257l24.7872-6.1912s-10.1096-68.9333-10.1845-69.4618c-.0749-.3775-.4493-.6796-.8237-.6796z" fill="#5e8e3e"/><path d="m43.9341 30.1254-2.8456 10.8723s-3.2201-1.51-7.0393-1.208c-5.6165.3775-5.6165 3.9261-5.6165 4.8321.2996 4.8321 12.9553 5.8892 13.7042 17.29.5242 8.9847-4.7179 15.1004-12.2813 15.5534-9.1361.604-14.1535-4.8322-14.1535-4.8322l1.9471-8.3052s5.0173 3.8506 9.0612 3.5486c2.621-.151 3.5945-2.3405 3.5196-3.8506-.3744-6.3421-10.7087-5.9646-11.3826-16.3839-.5242-8.7582 5.1671-17.6675 17.7479-18.4225 4.8676-.3775 7.3388.906 7.3388.906z" fill="#fff"/></g></svg>