<svg width="16" height="16" viewBox="0 0 16 16" fill="none" xmlns="http://www.w3.org/2000/svg">
<path d="M7.50002 10.667V9.66699H8.50002V10.667H7.50002Z" fill="#745D2E"/>
<path d="M7.50002 5.33366L7.50002 8.66699H8.50002V5.33366L7.50002 5.33366Z" fill="#745D2E"/>
<path fill-rule="evenodd" clip-rule="evenodd" d="M8.00002 2.66699C5.0545 2.66699 2.66669 5.05481 2.66669 8.00033C2.66669 10.9458 5.0545 13.3337 8.00002 13.3337C10.9455 13.3337 13.3334 10.9458 13.3334 8.00033C13.3334 5.05481 10.9455 2.66699 8.00002 2.66699ZM3.66669 8.00033C3.66669 10.3936 5.60679 12.3337 8.00002 12.3337C10.3933 12.3337 12.3334 10.3936 12.3334 8.00033C12.3334 5.60709 10.3933 3.66699 8.00002 3.66699C5.60679 3.66699 3.66669 5.60709 3.66669 8.00033Z" fill="#745D2E"/>
</svg>
