<svg width="17" height="16" viewBox="0 0 17 16" fill="none" xmlns="http://www.w3.org/2000/svg">
<path fill-rule="evenodd" clip-rule="evenodd" d="M8.82357 12.3333C7.6743 12.3333 6.5721 11.8768 5.75944 11.0641C4.94678 10.2515 4.49023 9.14928 4.49023 8C4.49023 6.85073 4.94678 5.74853 5.75944 4.93588C6.5721 4.12322 7.6743 3.66667 8.82357 3.66667C9.97284 3.66667 11.075 4.12322 11.8877 4.93588C12.7004 5.74853 13.1569 6.85073 13.1569 8C13.1569 9.14928 12.7004 10.2515 11.8877 11.0641C11.075 11.8768 9.97284 12.3333 8.82357 12.3333ZM3.49023 8C3.49023 6.58552 4.05214 5.22896 5.05233 4.22877C6.05253 3.22857 7.40908 2.66667 8.82357 2.66667C10.2381 2.66667 11.5946 3.22857 12.5948 4.22877C13.595 5.22896 14.1569 6.58552 14.1569 8C14.1569 9.41449 13.595 10.771 12.5948 11.7712C11.5946 12.7714 10.2381 13.3333 8.82357 13.3333C7.40908 13.3333 6.05253 12.7714 5.05233 11.7712C4.05214 10.771 3.49023 9.41449 3.49023 8ZM11.1769 7.02L10.4702 6.31334L8.1569 8.62667L7.1769 7.64667L6.47023 8.35334L8.1569 10.04L11.1769 7.02Z" fill="#345B37"/>
</svg>
