<svg width="25" height="24" viewBox="0 0 25 24" fill="none" xmlns="http://www.w3.org/2000/svg">
<path fill-rule="evenodd" clip-rule="evenodd" d="M7.3252 4H17.3252C17.8556 4 18.3643 4.21071 18.7394 4.58579C19.1145 4.96086 19.3252 5.46957 19.3252 6V18C19.3252 18.5304 19.1145 19.0391 18.7394 19.4142C18.3643 19.7893 17.8556 20 17.3252 20H7.3252C6.79476 20 6.28605 19.7893 5.91098 19.4142C5.53591 19.0391 5.3252 18.5304 5.3252 18V6C5.3252 5.46957 5.53591 4.96086 5.91098 4.58579C6.28605 4.21071 6.79476 4 7.3252 4ZM17.3252 5.5H7.3252C7.19259 5.5 7.06541 5.55268 6.97164 5.64645C6.87787 5.74021 6.8252 5.86739 6.8252 6V18C6.8252 18.1326 6.87787 18.2598 6.97164 18.3536C7.06541 18.4473 7.19259 18.5 7.3252 18.5H17.3252C17.4578 18.5 17.585 18.4473 17.6787 18.3536C17.7725 18.2598 17.8252 18.1326 17.8252 18V6C17.8252 5.86739 17.7725 5.74021 17.6787 5.64645C17.585 5.55268 17.4578 5.5 17.3252 5.5ZM8.8252 7.5H15.8252V9H8.8252V7.5ZM15.8252 11H8.8252V12.5H15.8252V11ZM8.8252 14.5H15.8252V16H8.8252V14.5Z" fill="#1E1E1E"/>
</svg>
