<svg width="25" height="24" viewBox="0 0 25 24" fill="none" xmlns="http://www.w3.org/2000/svg">
<path d="M12.3252 4.75C11.3731 4.75 10.4304 4.93753 9.55074 5.30187C8.67113 5.66622 7.8719 6.20025 7.19867 6.87348C6.52545 7.5467 5.99142 8.34593 5.62707 9.22554C5.26272 10.1052 5.0752 11.0479 5.0752 12C5.0752 12.9521 5.26272 13.8948 5.62707 14.7745C5.99142 15.6541 6.52545 16.4533 7.19867 17.1265C7.8719 17.7997 8.67113 18.3338 9.55074 18.6981C10.4304 19.0625 11.3731 19.25 12.3252 19.25C14.248 19.25 16.0921 18.4862 17.4517 17.1265C18.8114 15.7669 19.5752 13.9228 19.5752 12C19.5752 10.0772 18.8114 8.23311 17.4517 6.87348C16.0921 5.51384 14.248 4.75 12.3252 4.75ZM3.5752 12C3.5752 9.67936 4.49707 7.45376 6.13801 5.81282C7.77895 4.17187 10.0046 3.25 12.3252 3.25C14.6458 3.25 16.8714 4.17187 18.5124 5.81282C20.1533 7.45376 21.0752 9.67936 21.0752 12C21.0752 14.3206 20.1533 16.5462 18.5124 18.1872C16.8714 19.8281 14.6458 20.75 12.3252 20.75C10.0046 20.75 7.77895 19.8281 6.13801 18.1872C4.49707 16.5462 3.5752 14.3206 3.5752 12ZM12.3252 8.75C12.7075 8.75148 13.0749 8.89891 13.3521 9.16216C13.6294 9.4254 13.7957 9.7846 13.817 10.1663C13.8384 10.5481 13.7131 10.9236 13.4669 11.216C13.2206 11.5085 12.872 11.6959 12.4922 11.74C12.0272 11.792 11.5752 12.18 11.5752 12.75V14H13.0752V13.155C13.6185 13.0147 14.1115 12.7249 14.4983 12.3185C14.8851 11.912 15.1502 11.4053 15.2635 10.8557C15.3767 10.3062 15.3336 9.73588 15.1389 9.20962C14.9443 8.68337 14.606 8.22225 14.1624 7.87863C13.7189 7.53502 13.1878 7.32268 12.6296 7.26575C12.0714 7.20881 11.5085 7.30956 11.0046 7.55654C10.5008 7.80352 10.0764 8.18684 9.77952 8.66296C9.48265 9.13908 9.32524 9.68891 9.3252 10.25H10.8252C10.8252 9.85218 10.9832 9.47064 11.2645 9.18934C11.5458 8.90804 11.9274 8.75 12.3252 8.75ZM11.5752 15V16.5H13.0752V15H11.5752Z" fill="#1E1E1E"/>
</svg>
