<svg width="17" height="18" viewBox="0 0 17 18" fill="none" xmlns="http://www.w3.org/2000/svg">
<path d="M11.7412 17.9565L16.3256 16.8242C16.3256 16.8242 14.3518 3.56126 14.3392 3.47027C14.3266 3.37929 14.2467 3.3288 14.1803 3.3233C14.1144 3.3178 12.8237 3.2983 12.8237 3.2983C12.8237 3.2983 12.037 2.53892 11.7412 2.25146V17.9565Z" fill="black"/>
<path d="M11.2419 2.09999C11.2408 2.10049 11.0391 2.16248 10.6996 2.26696C10.6428 2.08399 10.5593 1.85903 10.4401 1.63306C10.0558 0.904177 9.49291 0.518738 8.81285 0.517738C8.81185 0.517738 8.81135 0.517738 8.81034 0.517738C8.76306 0.517738 8.71628 0.522237 8.669 0.526236C8.64888 0.50224 8.62876 0.478744 8.60763 0.455747C8.31136 0.140797 7.93159 -0.0126792 7.47638 0.000818724C6.59814 0.0258148 5.72341 0.656216 5.01418 1.77604C4.5152 2.56392 4.13544 3.55376 4.02779 4.32014C3.01927 4.63059 2.31407 4.84756 2.29847 4.85256C1.78943 5.01153 1.77334 5.02703 1.70694 5.50396C1.65715 5.8644 0.325195 16.1008 0.325195 16.1008L11.3757 18V2.07749C11.3213 2.08099 11.2725 2.09099 11.2419 2.09999ZM8.69012 2.88537C8.10513 3.06534 7.46682 3.26181 6.8265 3.45878C7.00657 2.77338 7.34811 2.09099 7.76762 1.64356C7.92355 1.47709 8.14185 1.29162 8.40039 1.18563C8.64334 1.68955 8.69616 2.40294 8.69012 2.88537ZM7.49348 0.581728C7.69971 0.577228 7.87325 0.622221 8.02163 0.719206C7.78421 0.841687 7.55485 1.01766 7.33956 1.24712C6.78173 1.84203 6.35418 2.76539 6.18366 3.65625C5.65199 3.81972 5.13188 3.9802 4.65303 4.12717C4.95533 2.72489 6.13789 0.620722 7.49348 0.581728ZM5.78478 8.56998C5.84414 9.50433 8.3174 9.7083 8.45623 11.897C8.56538 13.6187 7.53724 14.7965 6.0559 14.8895C4.27779 15.001 3.29894 13.9581 3.29894 13.9581L3.67569 12.3649C3.67569 12.3649 4.66107 13.1038 5.44978 13.0543C5.96486 13.0218 6.14895 12.6053 6.13034 12.3109C6.05288 11.0921 4.03886 11.1641 3.9116 9.16138C3.80446 7.47615 4.91811 5.76842 7.37527 5.61444C8.32192 5.55495 8.80682 5.79541 8.80682 5.79541L8.24496 7.88458C8.24496 7.88458 7.61822 7.60113 6.87529 7.64762C5.78528 7.71611 5.77372 8.399 5.78478 8.56998ZM9.27411 2.7059C9.26757 2.26396 9.21475 1.64906 9.00752 1.11764C9.67399 1.24312 10.002 1.99251 10.1408 2.43944C9.88375 2.51792 9.591 2.60791 9.27411 2.7059Z" fill="black"/>
</svg>
