<?xml version="1.0" encoding="UTF-8"?>
<svg width="32px" height="32px" viewBox="0 0 32 32" version="1.1" xmlns="http://www.w3.org/2000/svg" xmlns:xlink="http://www.w3.org/1999/xlink">
    <title>Shape</title>
    <g id="component:-featured-image" stroke="none" stroke-width="1" fill="none" fill-rule="evenodd">
        <g id="wpb-default" transform="translate(0, 0)" fill="#00447F">
            <path d="M16,0 C24.836556,0 32,7.163444 32,16 C32,24.836556 24.836556,32 16,32 C7.163444,32 0,24.836556 0,16 C0,7.163444 7.163444,0 16,0 Z M13.9090909,8.999961 C10.0933054,8.999961 7,12.0612619 7,15.8375678 C7,19.1832164 9.42800217,21.9676419 12.6353167,22.5592127 L12.6352273,23.0384225 C12.6352273,23.5694656 13.0702233,23.999961 13.6068182,23.999961 L19.4363636,23.999961 C19.9729585,23.999961 20.4079545,23.5694656 20.4079545,23.0384225 L20.4079545,22.6751533 L20.9038727,22.6744876 C23.7261886,22.6292015 26,20.3508767 26,17.5469695 C26,14.7147401 23.680021,12.4187644 20.8181818,12.4187644 C20.5176283,12.4187644 20.2230513,12.4440877 19.9365603,12.4928661 C18.7529672,10.4083054 16.4972167,8.999961 13.9090909,8.999961 Z" id="Shape"></path>
        </g>
    </g>
</svg>