<?xml version="1.0" encoding="UTF-8"?>
<svg width="34px" height="34px" viewBox="0 0 34 34" version="1.1" xmlns="http://www.w3.org/2000/svg" xmlns:xlink="http://www.w3.org/1999/xlink">
    <title>flexbox-container</title>
    <g id="component:-featured-image" stroke="none" stroke-width="1" fill="none" fill-rule="evenodd">
        <g id="flexbox-container" transform="translate(1, 1)" stroke-width="1.7">
            <rect id="Rectangle" stroke="#00447F" fill="#00447F" x="0" y="0" width="32" height="32" rx="3"></rect>
            <path d="M6,5 L12,5 C12.5522847,5 13,5.44771525 13,6 L13,12 C13,12.5522847 12.5522847,13 12,13 L6,13 C5.44771525,13 5,12.5522847 5,12 L5,6 C5,5.44771525 5.44771525,5 6,5 Z" id="Rectangle" stroke="#FFFFFF" stroke-linecap="round" stroke-linejoin="round"></path>
            <path d="M6,19 L12,19 C12.5522847,19 13,19.4477153 13,20 L13,26 C13,26.5522847 12.5522847,27 12,27 L6,27 C5.44771525,27 5,26.5522847 5,26 L5,20 C5,19.4477153 5.44771525,19 6,19 Z" id="Rectangle" stroke="#FFFFFF" stroke-linecap="round" stroke-linejoin="round"></path>
            <path d="M27,17 L27,6 C27,5.44772 26.5523,5 26,5 L20,5 C19.4478,5 19,5.44772 19,6 L19,26 C19,26.5523 19.4478,27 20,27 L26,27 C26.5523,27 27,26.5523 27,26 L27,23" id="Path" stroke="#FFFFFF" stroke-linecap="round" stroke-linejoin="round"></path>
        </g>
    </g>
</svg>