<?xml version="1.0" encoding="UTF-8"?>
<svg width="34px" height="34px" viewBox="0 0 34 34" version="1.1" xmlns="http://www.w3.org/2000/svg" xmlns:xlink="http://www.w3.org/1999/xlink">
    <title>grid-container</title>
    <g id="component:-featured-image" stroke="none" stroke-width="1" fill="none" fill-rule="evenodd">
        <g id="grid-container" transform="translate(1, 1)" stroke-width="1.7">
            <rect id="Rectangle" stroke="#00447F" fill="#00447F" x="0" y="0" width="32" height="32" rx="3"></rect>
            <path d="M20,5 L26,5 C26.5522847,5 27,5.44771525 27,6 L27,12 C27,12.5522847 26.5522847,13 26,13 L20,13 C19.4477153,13 19,12.5522847 19,12 L19,6 C19,5.44771525 19.4477153,5 20,5 Z" id="Rectangle" stroke="#FFFFFF" stroke-linecap="round" stroke-linejoin="round"></path>
            <path d="M20,19 L26,19 C26.5522847,19 27,19.4477153 27,20 L27,26 C27,26.5522847 26.5522847,27 26,27 L20,27 C19.4477153,27 19,26.5522847 19,26 L19,20 C19,19.4477153 19.4477153,19 20,19 Z" id="Rectangle" stroke="#FFFFFF" stroke-linecap="round" stroke-linejoin="round"></path>
            <path d="M6,5 L12,5 C12.5522847,5 13,5.44771525 13,6 L13,12 C13,12.5522847 12.5522847,13 12,13 L6,13 C5.44771525,13 5,12.5522847 5,12 L5,6 C5,5.44771525 5.44771525,5 6,5 Z" id="Rectangle" stroke="#FFFFFF" stroke-linecap="round" stroke-linejoin="round"></path>
            <path d="M6,19 L12,19 C12.5522847,19 13,19.4477153 13,20 L13,26 C13,26.5522847 12.5522847,27 12,27 L6,27 C5.44771525,27 5,26.5522847 5,26 L5,20 C5,19.4477153 5.44771525,19 6,19 Z" id="Rectangle" stroke="#FFFFFF" stroke-linecap="round" stroke-linejoin="round"></path>
        </g>
    </g>
</svg>