<?xml version="1.0" encoding="UTF-8"?>
<svg width="34px" height="34px" viewBox="0 0 34 34" version="1.1" xmlns="http://www.w3.org/2000/svg" xmlns:xlink="http://www.w3.org/1999/xlink">
    <title>row</title>
    <g id="component:-featured-image" stroke="none" stroke-width="1" fill="none" fill-rule="evenodd">
        <g id="row" transform="translate(1, 1)" stroke-width="1.7">
            <rect id="Rectangle" stroke="#00447F" fill="#00447F" x="0" y="0" width="32" height="32" rx="3"></rect>
            <path d="M6,5 L26,5 C26.5522847,5 27,5.44771525 27,6 L27,12 C27,12.5522847 26.5522847,13 26,13 L6,13 C5.44771525,13 5,12.5522847 5,12 L5,6 C5,5.44771525 5.44771525,5 6,5 Z" id="Rectangle" stroke="#FFFFFF" stroke-linecap="round" stroke-linejoin="round"></path>
            <path d="M17,19 L6,19 C5.44772,19 5,19.4477 5,20 L5,26 C5,26.5522 5.44772,27 6,27 L26,27 C26.5523,27 27,26.5522 27,26 L27,20 C27,19.4477 26.5523,19 26,19 L23,19" id="Path" stroke="#FFFFFF" stroke-linecap="round" stroke-linejoin="round"></path>
        </g>
    </g>
</svg>